<?xml version="1.0" encoding="UTF-8"?>
<svg width="643px" height="431px" viewBox="0 0 643 431" version="1.1" xmlns="http://www.w3.org/2000/svg" xmlns:xlink="http://www.w3.org/1999/xlink">
    <title>id-card-crop</title>
    <defs>
        <rect id="path-1" x="0" y="0" width="643" height="431"></rect>
        <path d="M16.3868658,0 L601.613134,0 C607.311204,0 609.377463,0.614213691 611.460591,1.7675786 C613.543721,2.92094352 615.178573,4.61345964 616.292643,6.77006453 C617.406713,8.9266694 618,11.0658079 618,16.9648589 L618,387.035141 C618,392.934192 617.406713,395.073331 616.292643,397.229935 C615.178573,399.386541 613.543721,401.079056 611.460591,402.232422 C609.377463,403.385786 607.311204,404 601.613134,404 L16.3868658,404 C10.6887956,404 8.62253762,403.385786 6.53940831,402.232422 C4.45627899,401.079056 2.82142692,399.386541 1.70735717,397.229935 C0.59328742,395.073331 0,392.934192 0,387.035141 L0,16.9648589 C0,11.0658079 0.59328742,8.9266694 1.70735717,6.77006453 C2.82142692,4.61345964 4.45627899,2.92094352 6.53940831,1.7675786 C8.62253762,0.614213691 10.6887956,0 16.3868658,0 Z" id="path-3"></path>
        <path d="M16.3868658,0 L601.613134,0 C607.311204,0 609.377463,0.614213691 611.460591,1.7675786 C613.543721,2.92094352 615.178573,4.61345964 616.292643,6.77006453 C617.406713,8.9266694 618,11.0658079 618,16.9648589 L618,387.035141 C618,392.934192 617.406713,395.073331 616.292643,397.229935 C615.178573,399.386541 613.543721,401.079056 611.460591,402.232422 C609.377463,403.385786 607.311204,404 601.613134,404 L16.3868658,404 C10.6887956,404 8.62253762,403.385786 6.53940831,402.232422 C4.45627899,401.079056 2.82142692,399.386541 1.70735717,397.229935 C0.59328742,395.073331 0,392.934192 0,387.035141 L0,16.9648589 C0,11.0658079 0.59328742,8.9266694 1.70735717,6.77006453 C2.82142692,4.61345964 4.45627899,2.92094352 6.53940831,1.7675786 C8.62253762,0.614213691 10.6887956,0 16.3868658,0 Z" id="path-5"></path>
        <path d="M16.3868658,0 L601.613134,0 C607.311204,0 609.377463,0.614213691 611.460591,1.7675786 C613.543721,2.92094352 615.178573,4.61345964 616.292643,6.77006453 C617.406713,8.9266694 618,11.0658079 618,16.9648589 L618,387.035141 C618,392.934192 617.406713,395.073331 616.292643,397.229935 C615.178573,399.386541 613.543721,401.079056 611.460591,402.232422 C609.377463,403.385786 607.311204,404 601.613134,404 L16.3868658,404 C10.6887956,404 8.62253762,403.385786 6.53940831,402.232422 C4.45627899,401.079056 2.82142692,399.386541 1.70735717,397.229935 C0.59328742,395.073331 0,392.934192 0,387.035141 L0,16.9648589 C0,11.0658079 0.59328742,8.9266694 1.70735717,6.77006453 C2.82142692,4.61345964 4.45627899,2.92094352 6.53940831,1.7675786 C8.62253762,0.614213691 10.6887956,0 16.3868658,0 Z" id="path-7"></path>
        <path d="M16.3868658,0 L601.613134,0 C607.311204,0 609.377463,0.614213691 611.460591,1.7675786 C613.543721,2.92094352 615.178573,4.61345964 616.292643,6.77006453 C617.406713,8.9266694 618,11.0658079 618,16.9648589 L618,387.035141 C618,392.934192 617.406713,395.073331 616.292643,397.229935 C615.178573,399.386541 613.543721,401.079056 611.460591,402.232422 C609.377463,403.385786 607.311204,404 601.613134,404 L16.3868658,404 C10.6887956,404 8.62253762,403.385786 6.53940831,402.232422 C4.45627899,401.079056 2.82142692,399.386541 1.70735717,397.229935 C0.59328742,395.073331 0,392.934192 0,387.035141 L0,16.9648589 C0,11.0658079 0.59328742,8.9266694 1.70735717,6.77006453 C2.82142692,4.61345964 4.45627899,2.92094352 6.53940831,1.7675786 C8.62253762,0.614213691 10.6887956,0 16.3868658,0 Z" id="path-9"></path>
        <path d="M16.3868658,0 L601.613134,0 C607.311204,0 609.377463,0.614213691 611.460591,1.7675786 C613.543721,2.92094352 615.178573,4.61345964 616.292643,6.77006453 C617.406713,8.9266694 618,11.0658079 618,16.9648589 L618,387.035141 C618,392.934192 617.406713,395.073331 616.292643,397.229935 C615.178573,399.386541 613.543721,401.079056 611.460591,402.232422 C609.377463,403.385786 607.311204,404 601.613134,404 L16.3868658,404 C10.6887956,404 8.62253762,403.385786 6.53940831,402.232422 C4.45627899,401.079056 2.82142692,399.386541 1.70735717,397.229935 C0.59328742,395.073331 0,392.934192 0,387.035141 L0,16.9648589 C0,11.0658079 0.59328742,8.9266694 1.70735717,6.77006453 C2.82142692,4.61345964 4.45627899,2.92094352 6.53940831,1.7675786 C8.62253762,0.614213691 10.6887956,0 16.3868658,0 Z" id="path-11"></path>
    </defs>
    <g id="Page-1" stroke="none" stroke-width="1" fill="none" fill-rule="evenodd">
        <g id="id-card-crop">
            <mask id="mask-2" fill="white">
                <use xlink:href="#path-1"></use>
            </mask>
            <g id="path-3"></g>
            <g id="Group-27" mask="url(#mask-2)">
                <g transform="translate(12.000000, 13.000000)">
                    <g id="Titanium-Card">
                        <path d="M16.3868658,0 L601.613134,0 C607.311204,0 609.377463,0.614213691 611.460591,1.7675786 C613.543721,2.92094352 615.178573,4.61345964 616.292643,6.77006453 C617.406713,8.9266694 618,11.0658079 618,16.9648589 L618,387.035141 C618,392.934192 617.406713,395.073331 616.292643,397.229935 C615.178573,399.386541 613.543721,401.079056 611.460591,402.232422 C609.377463,403.385786 607.311204,404 601.613134,404 L16.3868658,404 C10.6887956,404 8.62253762,403.385786 6.53940831,402.232422 C4.45627899,401.079056 2.82142692,399.386541 1.70735717,397.229935 C0.59328742,395.073331 0,392.934192 0,387.035141 L0,16.9648589 C0,11.0658079 0.59328742,8.9266694 1.70735717,6.77006453 C2.82142692,4.61345964 4.45627899,2.92094352 6.53940831,1.7675786 C8.62253762,0.614213691 10.6887956,0 16.3868658,0 Z" id="path-1" stroke="#FFFFFF" stroke-width="2"></path>
                    </g>
                    <g id="Rectangle-Clipped">
                        <mask id="mask-4" fill="white">
                            <use xlink:href="#path-3"></use>
                        </mask>
                        <g id="path-1"></g>
                        <rect id="Rectangle" stroke="#FFFFFF" stroke-width="2" mask="url(#mask-4)" x="462" y="194" width="142" height="171"></rect>
                    </g>
                    <g id="Rectangle-Clipped">
                        <mask id="mask-6" fill="white">
                            <use xlink:href="#path-5"></use>
                        </mask>
                        <g id="path-1"></g>
                        <rect id="Rectangle" stroke="#FFFFFF" stroke-width="2" mask="url(#mask-6)" x="12" y="95" width="42" height="290"></rect>
                    </g>
                    <g id="Oval-Clipped">
                        <mask id="mask-8" fill="white">
                            <use xlink:href="#path-7"></use>
                        </mask>
                        <g id="path-1"></g>
                        <ellipse id="Oval" stroke="#FFFFFF" stroke-width="2" mask="url(#mask-8)" cx="42" cy="47" rx="36" ry="38"></ellipse>
                    </g>
                    <g id="บัตรประจำตัวประชาชน-Clipped">
                        <mask id="mask-10" fill="white">
                            <use xlink:href="#path-9"></use>
                        </mask>
                        <g id="path-1"></g>
                        <text id="บัตรประจำตัวประชาชน" fill="#FFFFFF" fill-rule="nonzero" mask="url(#mask-10)" font-family="Mitr-ExtraLight, Mitr" font-size="24" font-weight="300">
                            <tspan x="98" y="27">บัตรประจำ</tspan>
                            <tspan x="98" y="65">ตัว</tspan>
                            <tspan x="98" y="103">ประชาชน</tspan>
                        </text>
                    </g>
                    <g id="Thai-National-ID-Car-Clipped">
                        <mask id="mask-12" fill="white">
                            <use xlink:href="#path-11"></use>
                        </mask>
                        <g id="path-1"></g>
                        <text id="Thai-National-ID-Card" fill="#FFFFFF" fill-rule="nonzero" mask="url(#mask-12)" font-family="Mitr-ExtraLight, Mitr" font-size="24" font-weight="300">
                            <tspan x="337" y="27">Thai National ID Card</tspan>
                        </text>
                    </g>
                </g>
            </g>
        </g>
    </g>
</svg>